<svg xmlns="http://www.w3.org/2000/svg" viewBox="0 0 40 40"><path fill="#fba511" d="M6 16v7.3c0 1 .7.6 1 .3 1.6-.8 3-.6 4 .8 1 1.3.4 2.7-.6 3.8l-5 5.1c-1 1-2 1.4-3.2 1a3.2 3.2 0 0 1-1.8-3v-22C.4 7.7.8 6.5 2.3 6c1.4-.5 2.4.2 3.3 1l22 22.1c1.7 1.6 1.8 3.2.6 4.5-1.2 1.2-3 1-4.6-.6L8 17.5 6 16m28 8.3V17c-.1-1-.6-.6-1.1-.4-1.5.8-3 .6-3.8-.8-1-1.3-.5-2.6.5-3.7l5-5.2c.9-1 2-1.4 3.2-.8 1.4.5 1.8 1.6 1.8 3v22c0 1.4-.4 2.5-1.8 3.1-1.5.6-2.5 0-3.4-1l-22-22c-1.6-1.7-1.8-3.3-.6-4.5 1.2-1.3 3-1 4.6.6l15.8 15.4 1.7 1.6" class="layer"/></svg>